<svg width="82" height="81" viewBox="0 0 82 81" fill="none" xmlns="http://www.w3.org/2000/svg">
<path d="M37.7171 37.15C36.4271 37.15 35.4571 36.82 34.8071 36.16C34.1671 35.49 33.8471 34.565 33.8471 33.385C33.8471 32.195 34.2071 31.285 34.9271 30.655C35.6571 30.025 36.5821 29.71 37.7021 29.71C39.9721 29.71 41.0621 30.85 40.9721 33.13H36.7421V33.715C36.7421 34.695 36.8671 35.435 37.1171 35.935C37.3671 36.435 37.8021 36.685 38.4221 36.685C39.5821 36.685 40.3421 36.065 40.7021 34.825L40.9721 34.87C40.7821 35.59 40.4371 36.15 39.9371 36.55C39.4471 36.95 38.7071 37.15 37.7171 37.15ZM36.7571 32.83H38.3021V32.095C38.3021 31.285 38.2521 30.735 38.1521 30.445C38.0621 30.145 37.8721 29.995 37.5821 29.995C37.3021 29.995 37.0921 30.155 36.9521 30.475C36.8221 30.785 36.7571 31.325 36.7571 32.095V32.83ZM46.9814 32.965C46.9814 31.935 46.9314 31.245 46.8314 30.895C46.7314 30.535 46.5364 30.355 46.2464 30.355C45.9564 30.355 45.6964 30.535 45.4664 30.895C45.2364 31.255 45.1214 31.75 45.1214 32.38V35.17C45.1214 35.6 45.2064 35.965 45.3764 36.265C45.5564 36.565 45.8064 36.715 46.1264 36.715C46.4564 36.715 46.6814 36.495 46.8014 36.055C46.9214 35.615 46.9814 34.845 46.9814 33.745V32.965ZM45.1214 25.75V31C45.5014 30.14 46.1514 29.71 47.0714 29.71C48.9414 29.71 49.8764 30.955 49.8764 33.445C49.8764 34.715 49.6164 35.65 49.0964 36.25C48.5864 36.85 47.8164 37.15 46.7864 37.15C46.2664 37.15 45.8664 37.07 45.5864 36.91C45.3164 36.75 45.1314 36.485 45.0314 36.115L44.9264 37H41.5064V36.73H42.3314V26.02H41.5064V25.75H45.1214ZM55.4398 26.2C55.4398 25.84 55.2498 25.66 54.8698 25.66C54.4898 25.66 54.2398 25.805 54.1198 26.095C53.9998 26.375 53.9398 26.83 53.9398 27.46V29.86H55.3198V30.13H53.9398V36.73H54.8098V37H50.3248V36.73H51.1498V30.13H50.2798V29.86H51.1498V29.83C51.1498 28.43 51.4498 27.345 52.0498 26.575C52.6498 25.795 53.5348 25.405 54.7048 25.405C55.8748 25.405 56.6298 25.745 56.9698 26.425L58.5448 25.75H58.8748V36.73H59.7148V37H55.4098V36.73H56.0848V29.065L56.2498 28.21C56.1198 28.31 55.9148 28.36 55.6348 28.36C55.3548 28.36 55.1248 28.265 54.9448 28.075C54.7648 27.875 54.6748 27.655 54.6748 27.415C54.6748 27.165 54.7048 26.92 54.7648 26.68H55.3348C55.4048 26.51 55.4398 26.35 55.4398 26.2ZM62.1978 28.825C61.6678 28.825 61.2878 28.69 61.0578 28.42C60.8378 28.15 60.7278 27.815 60.7278 27.415C60.7278 27.015 60.8478 26.685 61.0878 26.425C61.3378 26.165 61.7128 26.035 62.2128 26.035C62.7128 26.035 63.0928 26.155 63.3528 26.395C63.6128 26.625 63.7428 26.96 63.7428 27.4C63.7428 27.83 63.6178 28.175 63.3678 28.435C63.1178 28.695 62.7278 28.825 62.1978 28.825ZM59.9328 29.86H63.6078V36.73H64.4478V37H59.9928V36.73H60.8178V30.13H59.9328V29.86ZM69.962 32.575L71.732 30.13H70.652V29.86H72.887V30.13H72.107L70.157 32.89L72.602 36.73H73.382V37H68.372V36.73H69.437L67.787 34.03L66.077 36.73H67.067V37H64.712V36.73H65.702L67.607 33.73L65.327 30.13H64.457V29.86H69.527V30.13H68.477L69.962 32.575Z" fill="#6D28D9"/>
<path fill-rule="evenodd" clip-rule="evenodd" d="M0 39.2471L15.7704 39.3086L17.8668 37.9925H81.999V74.2065C81.999 76.0063 81.1161 77.7323 79.5446 79.0049C77.9731 80.2775 75.8417 80.9925 73.6192 80.9925H8.37884C6.15637 80.9925 4.02493 80.2775 2.45341 79.0049C0.881894 77.7323 -0.000976562 76.0063 -0.000976562 74.2065V37.9925H1.99852L0 39.2471ZM1.99852 37.9925L15.1465 29.7384L23.0352 31.9857L25.4051 23.2982L37.4741 15.7216L46.6096 17.1409L47.9137 9.16776L62.5172 0L55.6582 14.2677L40.7531 23.6249L35.9296 22.9098L33.2119 22.065L33.0309 22.1787L32.6106 24.9934L31.2186 29.6104L17.8668 37.9925H1.99852Z" fill="#6D28D9"/>
<path d="M50.6091 57.0448C52.6797 58.2576 52.661 61.257 50.5754 62.4438L36.4971 70.4551C34.4115 71.6419 31.8233 70.1259 31.8383 67.7264L31.9395 51.5286C31.9545 49.129 34.5614 47.6455 36.632 48.8583L50.6091 57.0448Z" fill="#030712"/>
</svg>
