<svg width="82" height="83" viewBox="0 0 82 83" fill="none" xmlns="http://www.w3.org/2000/svg">
<path d="M37.7171 40.15C36.4271 40.15 35.4571 39.82 34.8071 39.16C34.1671 38.49 33.8471 37.565 33.8471 36.385C33.8471 35.195 34.2071 34.285 34.9271 33.655C35.6571 33.025 36.5821 32.71 37.7021 32.71C39.9721 32.71 41.0621 33.85 40.9721 36.13H36.7421V36.715C36.7421 37.695 36.8671 38.435 37.1171 38.935C37.3671 39.435 37.8021 39.685 38.4221 39.685C39.5821 39.685 40.3421 39.065 40.7021 37.825L40.9721 37.87C40.7821 38.59 40.4371 39.15 39.9371 39.55C39.4471 39.95 38.7071 40.15 37.7171 40.15ZM36.7571 35.83H38.3021V35.095C38.3021 34.285 38.2521 33.735 38.1521 33.445C38.0621 33.145 37.8721 32.995 37.5821 32.995C37.3021 32.995 37.0921 33.155 36.9521 33.475C36.8221 33.785 36.7571 34.325 36.7571 35.095V35.83ZM46.9814 35.965C46.9814 34.935 46.9314 34.245 46.8314 33.895C46.7314 33.535 46.5364 33.355 46.2464 33.355C45.9564 33.355 45.6964 33.535 45.4664 33.895C45.2364 34.255 45.1214 34.75 45.1214 35.38V38.17C45.1214 38.6 45.2064 38.965 45.3764 39.265C45.5564 39.565 45.8064 39.715 46.1264 39.715C46.4564 39.715 46.6814 39.495 46.8014 39.055C46.9214 38.615 46.9814 37.845 46.9814 36.745V35.965ZM45.1214 28.75V34C45.5014 33.14 46.1514 32.71 47.0714 32.71C48.9414 32.71 49.8764 33.955 49.8764 36.445C49.8764 37.715 49.6164 38.65 49.0964 39.25C48.5864 39.85 47.8164 40.15 46.7864 40.15C46.2664 40.15 45.8664 40.07 45.5864 39.91C45.3164 39.75 45.1314 39.485 45.0314 39.115L44.9264 40H41.5064V39.73H42.3314V29.02H41.5064V28.75H45.1214ZM55.4398 29.2C55.4398 28.84 55.2498 28.66 54.8698 28.66C54.4898 28.66 54.2398 28.805 54.1198 29.095C53.9998 29.375 53.9398 29.83 53.9398 30.46V32.86H55.3198V33.13H53.9398V39.73H54.8098V40H50.3248V39.73H51.1498V33.13H50.2798V32.86H51.1498V32.83C51.1498 31.43 51.4498 30.345 52.0498 29.575C52.6498 28.795 53.5348 28.405 54.7048 28.405C55.8748 28.405 56.6298 28.745 56.9698 29.425L58.5448 28.75H58.8748V39.73H59.7148V40H55.4098V39.73H56.0848V32.065L56.2498 31.21C56.1198 31.31 55.9148 31.36 55.6348 31.36C55.3548 31.36 55.1248 31.265 54.9448 31.075C54.7648 30.875 54.6748 30.655 54.6748 30.415C54.6748 30.165 54.7048 29.92 54.7648 29.68H55.3348C55.4048 29.51 55.4398 29.35 55.4398 29.2ZM62.1978 31.825C61.6678 31.825 61.2878 31.69 61.0578 31.42C60.8378 31.15 60.7278 30.815 60.7278 30.415C60.7278 30.015 60.8478 29.685 61.0878 29.425C61.3378 29.165 61.7128 29.035 62.2128 29.035C62.7128 29.035 63.0928 29.155 63.3528 29.395C63.6128 29.625 63.7428 29.96 63.7428 30.4C63.7428 30.83 63.6178 31.175 63.3678 31.435C63.1178 31.695 62.7278 31.825 62.1978 31.825ZM59.9328 32.86H63.6078V39.73H64.4478V40H59.9928V39.73H60.8178V33.13H59.9328V32.86ZM69.962 35.575L71.732 33.13H70.652V32.86H72.887V33.13H72.107L70.157 35.89L72.602 39.73H73.382V40H68.372V39.73H69.437L67.787 37.03L66.077 39.73H67.067V40H64.712V39.73H65.702L67.607 36.73L65.327 33.13H64.457V32.86H69.527V33.13H68.477L69.962 35.575Z" fill="#6D28D9"/>
<path fill-rule="evenodd" clip-rule="evenodd" d="M0 39.2471L15.7704 39.3086L31.2186 29.6104L32.6106 24.9934L33.0309 22.1787L33.2119 22.065L35.9296 22.9098L40.7531 23.6249L55.6582 14.2677L62.5172 0L47.9137 9.16776L46.6096 17.1409L37.4741 15.7216L25.4051 23.2982L23.0352 31.9857L15.1465 29.7384L0 39.2471ZM81.999 39.9925H-0.000976562V76.2066C-0.000976562 78.0063 0.881894 79.7324 2.45341 81.005C4.02493 82.2776 6.15637 82.9925 8.37884 82.9925H73.6192C75.8417 82.9925 77.9731 82.2776 79.5446 81.005C81.1161 79.7324 81.999 78.0063 81.999 76.2066V39.9925Z" fill="#6D28D9"/>
<path d="M50.6091 60.0448C52.6797 61.2576 52.661 64.257 50.5754 65.4438L36.4971 73.4551C34.4115 74.6419 31.8233 73.1259 31.8383 70.7264L31.9395 54.5286C31.9545 52.129 34.5614 50.6455 36.632 51.8583L50.6091 60.0448Z" fill="#030712"/>
</svg>
