<svg width="100" height="83" viewBox="0 0 100 83" fill="none" xmlns="http://www.w3.org/2000/svg">
<path d="M65.3654 26.1179V27.8989C65.3654 29.2782 65.0074 30.3258 64.2916 31.0417C63.5932 31.7576 62.6241 32.1155 61.3844 32.1155C60.1448 32.1155 59.167 31.7576 58.4511 31.0417C57.7527 30.3258 57.4035 29.2782 57.4035 27.8989V21.3775C57.4035 20.0156 57.7527 18.9767 58.4511 18.2608C59.167 17.5449 60.1535 17.187 61.4106 17.187C62.6503 17.187 63.6193 17.5449 64.3178 18.2608C65.0162 18.9592 65.3654 19.9981 65.3654 21.3775V25.5941H61.1225V28.4751C61.1225 28.8068 61.2098 28.9727 61.3844 28.9727C61.559 28.9727 61.6463 28.8068 61.6463 28.4751V26.1179H65.3654ZM61.6463 20.8013C61.6463 20.487 61.559 20.3299 61.3844 20.3299C61.2098 20.3299 61.1225 20.487 61.1225 20.8013V22.9751H61.6463V20.8013ZM73.8568 27.8989C73.8568 29.2433 73.656 30.2822 73.2544 31.0155C72.8528 31.7488 72.2854 32.1155 71.552 32.1155C71.0631 32.1155 70.6266 31.9584 70.2425 31.6441C69.8584 31.3123 69.5703 30.8584 69.3782 30.2822H69.2735L68.8282 31.7227H65.8949V12.0799H69.6139V18.968H69.7187C70.0504 17.7807 70.679 17.187 71.6044 17.187C72.3377 17.187 72.8965 17.5449 73.2806 18.2608C73.6647 18.9767 73.8568 20.0156 73.8568 21.3775V27.8989ZM69.8758 28.9727C70.0504 28.9727 70.1377 28.8068 70.1377 28.4751V20.8013C70.1377 20.487 70.0504 20.3299 69.8758 20.3299C69.7012 20.3299 69.6139 20.487 69.6139 20.8013V28.4751C69.6139 28.8068 69.7012 28.9727 69.8758 28.9727ZM74.907 20.7227H74.1213V17.5799H74.907V15.4061C74.907 14.6204 74.9769 14.0093 75.1166 13.5727C75.2737 13.1188 75.5356 12.787 75.9023 12.5775C76.2689 12.3505 76.7666 12.2108 77.3951 12.1585C78.0412 12.1061 78.8531 12.0799 79.8308 12.0799V15.2227C79.534 15.2227 79.2983 15.2315 79.1237 15.2489C78.9665 15.2664 78.8443 15.3013 78.757 15.3537C78.6872 15.4061 78.6435 15.4759 78.6261 15.5632C78.6261 15.6331 78.6261 15.7291 78.6261 15.8513V17.5799H79.4118V20.7227H78.6261V31.7227H74.907V20.7227ZM80.3456 12.0799H84.0647V31.7227H80.3456V12.0799ZM84.5913 13.3894H88.3104V17.0561H84.5913V13.3894ZM84.5913 17.5799H88.3104V31.7227H84.5913V17.5799ZM95.3846 24.5989V24.7036L96.4322 31.7227H92.7132L92.5299 28.0822L92.5561 25.856H92.3989L92.3727 28.0822L92.1894 31.7227H88.4704L89.518 24.7036V24.5989L88.4704 17.5799H92.1894L92.3727 21.2203V23.4465H92.5299V21.2203L92.7132 17.5799H96.4322L95.3846 24.5989Z" fill="#00BD7E"/>
<path fill-rule="evenodd" clip-rule="evenodd" d="M37.0012 29.3964L58.4042 17.3029L55.9689 0L39.9166 9.07006L45.0181 16.5994L45.9481 18.4952L45.306 18.858L37.7763 10.2794L18.1926 21.3449L21.3677 29.9626L21.9767 32.0399L21.3346 32.4027L20.1905 30.6277L16.0523 22.5542L0 31.6243L2.8008 33.9291H1.78588C0.799662 33.9291 0.000174403 34.7286 0.000174403 35.7148V71.8084C0.000174403 74.3389 1.46491 76.5554 3.66163 78.0631C5.85407 79.5678 8.72738 80.3575 11.6401 80.3575H88.3597C91.2725 80.3575 94.1458 79.5678 96.3382 78.0631C98.535 76.5554 99.9997 74.3389 99.9997 71.8084V35.7148C99.9997 34.7286 99.2002 33.9291 98.214 33.9291H28.9791L34.8609 30.6057L29.0552 19.0813L28.3095 17.0121L28.9516 16.6493L30.3393 18.3557L37.0012 29.3964ZM22.6584 37.5005L28.9791 33.9291H2.8008L7.14069 37.5005H3.57159V71.8084C3.57159 72.8654 4.18328 74.0894 5.68262 75.1185C7.18624 76.1505 9.32588 76.786 11.6401 76.786H88.3597C90.674 76.786 92.8136 76.1505 94.3172 75.1185C95.8166 74.0894 96.4283 72.8654 96.4283 71.8084V37.5005H22.6584ZM22.6584 37.5005L13.4579 42.6991L7.14069 37.5005H22.6584Z" fill="#00BD7E"/>
<path d="M67.7016 53.0967C71.0244 55.0428 70.9943 59.8561 67.6475 61.7606L45.0553 74.6168C41.7085 76.5213 37.5551 74.0886 37.5792 70.2379L37.7415 44.2444C37.7656 40.3938 41.949 38.0132 45.2718 39.9593L67.7016 53.0967Z" fill="#00BD7E"/>
</svg>
