<svg width="161" height="48" viewBox="0 0 161 48" fill="none" xmlns="http://www.w3.org/2000/svg">
<path d="M1 1H7.996L11.23 36.508H11.362L14.794 1H22.714L26.146 36.508H26.278L29.512 1H35.782L31.1514 43.7002L22.1514 45.2002L18.754 16.048H18.622L15.6514 45.7002L5.686 47.2L1 1Z" fill="#6D28D9"/>
<path d="M37.4543 1H57.2543V7.6H44.7143V19.81H54.6803V26.41H44.7143V36.046L56.5 34L57.2543 39.61L37.4543 42.7002V1Z" fill="#6D28D9"/>
<path d="M59.4391 0.999809H70.3951C74.1351 0.999809 76.8631 1.87981 78.5791 3.63981C80.2951 5.35581 81.1531 8.01781 81.1531 11.6258V13.4738C81.1531 15.8498 80.7571 17.7858 79.9651 19.2818C79.2171 20.7778 78.0511 21.8558 76.4671 22.5158V22.6478C80.0751 23.8798 81.8791 27.0918 81.8791 32.2838L81.7708 30.1998C81.7708 33.7638 81.8791 32.9426 81.1514 36.1998C80.6514 38.2017 74.108 38.5 70.5 38.5L59.6514 39.2017L59.4391 0.999809ZM69.5371 19.8098C70.9891 19.8098 72.0671 19.4358 72.7711 18.6878C73.5191 17.9398 73.8931 16.6858 73.8931 14.9258V12.3518C73.8931 10.6798 73.5851 9.46981 72.9691 8.72181C72.3971 7.97381 71.4731 7.59981 70.1971 7.59981H66.6991V19.8098H69.5371ZM66.6514 33.2017C67.9274 33.2017 70.6514 33.2017 71.6514 33.2017C73.1514 33.2017 74.1514 33.2017 74.1514 32.2017V31.2017C74.1514 29.0897 74.2451 28.4558 73.4971 27.6638C72.7931 26.8278 71.6051 26.4098 69.9331 26.4098H66.6991V30.7017L66.6514 33.2017Z" fill="#6D28D9"/>
<path d="M84.1144 1H103.32V7.6H91.3744V20.47H100.746V27.07H91.3744V38.2017L84.1144 37.9052V1Z" fill="#6D28D9"/>
<path d="M104.802 1H112.062V33.2017L124.008 35V41.7017L114.651 40.2017L104.651 39.2017L104.802 1Z" fill="#6D28D9"/>
<path d="M125.489 1H132.749V42.7017L125.489 41.7017V1Z" fill="#6D28D9"/>
<path d="M142.589 23.572L134.603 1H142.259L147.143 15.916H147.275L152.291 1H159.155L151.169 23.572L159.551 47.2L152.151 45.7019L146.615 31.096H146.483L141.651 44.2017L135.651 43.2017L142.589 23.572Z" fill="#6D28D9"/>
<path d="M1 1H7.996L11.23 36.508H11.362L14.794 1H22.714L26.146 36.508H26.278L29.512 1H35.782L31.1514 43.7002L22.1514 45.2002L18.754 16.048H18.622L15.6514 45.7002L5.686 47.2L1 1Z" stroke="#6D28D9" stroke-width="0.8"/>
<path d="M37.4543 1H57.2543V7.6H44.7143V19.81H54.6803V26.41H44.7143V36.046L56.5 34L57.2543 39.61L37.4543 42.7002V1Z" stroke="#6D28D9" stroke-width="0.8"/>
<path d="M59.4391 0.999809H70.3951C74.1351 0.999809 76.8631 1.87981 78.5791 3.63981C80.2951 5.35581 81.1531 8.01781 81.1531 11.6258V13.4738C81.1531 15.8498 80.7571 17.7858 79.9651 19.2818C79.2171 20.7778 78.0511 21.8558 76.4671 22.5158V22.6478C80.0751 23.8798 81.8791 27.0918 81.8791 32.2838L81.7708 30.1998C81.7708 33.7638 81.8791 32.9426 81.1514 36.1998C80.6514 38.2017 74.108 38.5 70.5 38.5L59.6514 39.2017L59.4391 0.999809ZM69.5371 19.8098C70.9891 19.8098 72.0671 19.4358 72.7711 18.6878C73.5191 17.9398 73.8931 16.6858 73.8931 14.9258V12.3518C73.8931 10.6798 73.5851 9.46981 72.9691 8.72181C72.3971 7.97381 71.4731 7.59981 70.1971 7.59981H66.6991V19.8098H69.5371ZM66.6514 33.2017C67.9274 33.2017 70.6514 33.2017 71.6514 33.2017C73.1514 33.2017 74.1514 33.2017 74.1514 32.2017V31.2017C74.1514 29.0897 74.2451 28.4558 73.4971 27.6638C72.7931 26.8278 71.6051 26.4098 69.9331 26.4098H66.6991V30.7017L66.6514 33.2017Z" stroke="#6D28D9" stroke-width="0.8"/>
<path d="M84.1144 1H103.32V7.6H91.3744V20.47H100.746V27.07H91.3744V38.2017L84.1144 37.9052V1Z" stroke="#6D28D9" stroke-width="0.8"/>
<path d="M104.802 1H112.062V33.2017L124.008 35V41.7017L114.651 40.2017L104.651 39.2017L104.802 1Z" stroke="#6D28D9" stroke-width="0.8"/>
<path d="M125.489 1H132.749V42.7017L125.489 41.7017V1Z" stroke="#6D28D9" stroke-width="0.8"/>
<path d="M142.589 23.572L134.603 1H142.259L147.143 15.916H147.275L152.291 1H159.155L151.169 23.572L159.551 47.2L152.151 45.7019L146.615 31.096H146.483L141.651 44.2017L135.651 43.2017L142.589 23.572Z" stroke="#6D28D9" stroke-width="0.8"/>
</svg>
